PathFileType	4	(X/Y/Z)	C:\Users\Basilio\Documents\Thesis Gigler\squatting_fais\c3dfiles\044\SJ_pre3\markers_experimental.trc
DataRate	CameraRate	NumFrames	NumMarkers	Units	OrigDataRate	OrigDataStartFrame	OrigNumFrames
200.000000	200.000000	4	63	mm	200.000000	1248	1427
Frame#	Time	FHD			LBHD			RBHD			C7			T10			CLAV			LSHO			LUUPA			LMUPA			LDUPA			LLEP			LMEP			LRAD			LUL			LRFIN			RSHO			RUPA1			RMUPA			RDUPA			RLEP			RMEP			RRAD			RUL			RUFIN			RASI			USACR			LSACR			RSACR			LTHI1			LTHI2			LTHI3			LTHI4			LLFC			LMFC			LTIB1			LTIB2			LTIB3			LTIB4			LLMAL			LMMAL			LHEE			LMT1			LMT2			LMT5			RTHI			RTHI2			RTHI3			RTHI4			RLFC			RMFC			RTIB1			RTIB2			RTIB3			RTIB4			RLMAL			RMMAL			RHEE			RMT1			RMT2			RMT5			LASI			*61			*62			
		X1	Y1	Z1	X2	Y2	Z2	X3	Y3	Z3	X4	Y4	Z4	X5	Y5	Z5	X6	Y6	Z6	X7	Y7	Z7	X8	Y8	Z8	X9	Y9	Z9	X10	Y10	Z10	X11	Y11	Z11	X12	Y12	Z12	X13	Y13	Z13	X14	Y14	Z14	X15	Y15	Z15	X16	Y16	Z16	X17	Y17	Z17	X18	Y18	Z18	X19	Y19	Z19	X20	Y20	Z20	X21	Y21	Z21	X22	Y22	Z22	X23	Y23	Z23	X24	Y24	Z24	X25	Y25	Z25	X26	Y26	Z26	X27	Y27	Z27	X28	Y28	Z28	X29	Y29	Z29	X30	Y30	Z30	X31	Y31	Z31	X32	Y32	Z32	X33	Y33	Z33	X34	Y34	Z34	X35	Y35	Z35	X36	Y36	Z36	X37	Y37	Z37	X38	Y38	Z38	X39	Y39	Z39	X40	Y40	Z40	X41	Y41	Z41	X42	Y42	Z42	X43	Y43	Z43	X44	Y44	Z44	X45	Y45	Z45	X46	Y46	Z46	X47	Y47	Z47	X48	Y48	Z48	X49	Y49	Z49	X50	Y50	Z50	X51	Y51	Z51	X52	Y52	Z52	X53	Y53	Z53	X54	Y54	Z54	X55	Y55	Z55	X56	Y56	Z56	X57	Y57	Z57	X58	Y58	Z58	X59	Y59	Z59	X60	Y60	Z60	X61	Y61	Z61	X62	Y62	Z62	X63	Y63	Z63	

1249	6.24	-214.2610168457032	1708.045043945313	-922.2086181640627	-352.0533752441407	1710.673828125	-998.3964843750002	-396.9869689941407	1705.291015625	-838.4815673828127	-466.4122924804689	1538.188720703125	-929.7774047851565	-520.8257446289064	1230.629516601563	-934.1571044921877	-338.8976440429688	1468.3291015625	-924.7031860351565	-360.8633117675782	1518.4990234375	-1104.10302734375	-435.5050048828126	1350.708984375	-1255.010864257813	-407.9646606445314	1309.467163085938	-1243.027709960938	-448.2668762207032	1289.417236328125	-1285.240600585938	-451.0904846191407	1229.676391601563	-1297.185668945313	-523.4802856445314	1230.17919921875	-1254.2763671875	-450.2514038085939	990.8558349609377	-1147.084716796875	-406.9339599609376	974.1450195312502	-1198.855834960938	-394.4045410156251	995.0640869140627	-1109.240478515625	-385.0422363281251	1498.213500976563	-731.9191894531251	-456.957733154297	1324.111450195313	-597.9531250000001	-426.7620544433595	1283.837646484375	-607.1444702148439	-464.7571716308595	1260.857055664063	-567.7536621093751	-461.876922607422	1198.343139648438	-557.2664184570314	-539.2020874023439	1194.247436523438	-596.9680786132814	-461.942108154297	962.3352661132815	-710.0332031250001	-419.9425048828126	944.393249511719	-654.9223632812501	-399.6295166015626	974.383239746094	-747.9028320312501	-361.1711120605469	994.1333618164065	-822.9819946289065	-522.3110351562501	1078.666259765625	-928.4260864257815	-528.6408691406251	1046.56640625	-956.1888427734377	-530.7590942382814	1050.989379882813	-899.3078613281252	-448.0892333984376	789.8353271484377	-1136.264892578125	-407.5748291015626	715.7638549804689	-1146.424682617188	-360.0889587402344	722.4971923828126	-1140.374633789063	-427.5592041015626	659.9985961914064	-1136.717163085938	-396.6998291015626	505.5390930175782	-1139.489501953125	-385.7807006835939	487.4991760253907	-1019.4609375	-397.4715881347657	323.3868103027344	-1079.236206054688	-431.3468322753907	286.4216918945313	-1152.824584960938	-402.0746459960939	278.3846435546876	-1116.862182617188	-430.8811340332032	202.9040069580079	-1092.259765625	-500.9273681640626	97.15431976318362	-1147.745849609375	-480.8728027343751	98.59986877441409	-1061.662963867188	-561.9686889648439	48.75449752807619	-1101.636962890625	-344.3073730468751	61.30103683471681	-1086.585571289063	-346.7546691894532	61.7488250732422	-1132.3876953125	-382.9319458007813	41.47163772583009	-1179.213012695313	-452.1734924316407	737.1762695312501	-739.3580322265626	-407.4074707031251	687.9016113281251	-727.4406127929689	-374.3149719238282	693.5506591796876	-729.4215087890626	-420.9388427734376	605.9133911132814	-741.6323852539064	-413.681854248047	496.1630249023439	-740.2425537109376	-410.4338989257814	482.6280517578126	-861.3509521484377	-385.6776123046876	362.1422119140626	-758.4635009765626	-468.3664855957032	306.4824218750001	-711.0216064453126	-428.0134277343751	291.3336486816407	-726.6110839843751	-426.8107910156251	238.6465911865235	-749.9915161132814	-518.9224243164064	97.2795104980469	-729.0823364257814	-494.1912231445314	99.56887817382815	-811.3877563476565	-572.4671020507814	49.64981842041017	-775.0925292968752	-361.4483032226563	60.93164062500001	-777.4314575195315	-356.1983642578126	60.29590225219728	-739.6731567382814	-394.9498596191407	40.40019226074219	-688.9470214843751	-360.2789916992188	1017.230529785156	-1041.589599609375	nan	nan	nan	nan	nan	nan	
1250	6.245	-214.7359313964844	1708.963745117188	-922.8870239257815	-352.9668579101563	1710.698120117188	-998.757751464844	-397.976287841797	1705.345336914063	-838.628112792969	-466.6845703125001	1537.994873046875	-929.9095458984377	-520.7562255859376	1230.654296875	-934.304138183594	-339.2276000976563	1468.561401367188	-924.8846435546877	-361.2978515625001	1518.557739257813	-1104.3544921875	-435.7268676757814	1350.642700195313	-1255.26513671875	-408.2174682617189	1309.552001953125	-1243.21044921875	-448.4576416015626	1289.314819335938	-1285.343017578125	-451.2390441894532	1229.728881835938	-1297.375	-523.5919799804689	1230.154296875	-1254.419677734375	-450.1496582031251	990.789001464844	-1147.307495117188	-406.933319091797	974.121765136719	-1198.991821289063	-394.2689514160157	995.1795043945315	-1109.491821289063	-385.1180419921876	1498.265502929688	-732.1593017578126	-456.8811035156251	1324.122192382813	-598.1520385742189	-426.5366516113282	1283.97802734375	-607.4063720703126	-464.4048156738282	1260.81689453125	-568.0003662109376	-461.6567382812501	1198.411010742188	-557.5249023437501	-538.8515014648439	1194.237548828125	-597.1334838867189	-461.7484436035157	962.438659667969	-710.1971435546876	-419.6787719726564	944.4021606445315	-655.1201171875001	-399.4124755859376	974.3420410156252	-748.1211547851564	-361.1358642578126	994.1666259765627	-823.0634765625002	-522.1981811523439	1078.751220703125	-928.5482177734377	-528.6448974609376	1046.560791015625	-956.268249511719	-530.6076049804689	1050.971435546875	-899.4094848632815	-447.9341430664064	789.8489990234377	-1136.406494140625	-407.3927307128907	715.7370605468751	-1146.630493164063	-360.0259094238282	722.4484863281251	-1140.4296875	-427.5825500488282	659.9462280273439	-1136.842529296875	-396.6258850097657	505.5210876464845	-1139.56005859375	-385.7202453613282	487.4442749023439	-1019.455993652344	-397.3655700683595	323.3953552246094	-1079.129638671875	-431.3756103515626	286.3884277343751	-1152.895751953125	-401.9926147460939	278.2595825195313	-1116.866821289063	-430.9178771972657	202.856674194336	-1092.284301757813	-500.9258117675782	97.17607116699222	-1147.745239257813	-480.876434326172	98.60065460205081	-1061.672973632813	-561.9616699218751	48.77523422241212	-1101.68896484375	-344.3306884765626	61.42027282714845	-1086.58056640625	-346.7797241210938	61.7638626098633	-1132.333129882813	-383.4455871582032	40.82040405273438	-1178.91796875	-452.0957031250001	737.1932373046876	-739.5524902343751	-407.2483825683595	687.9620361328126	-727.6972045898439	-374.2365417480469	693.5578613281251	-729.5393676757814	-420.9173889160157	606.0370483398439	-741.7752075195314	-413.7153625488282	496.1579895019532	-740.3730468750001	-410.3931884765626	482.6006774902345	-861.499938964844	-385.707733154297	362.1793518066407	-758.5394897460939	-468.309295654297	306.5213317871094	-711.1627197265626	-428.0220031738282	291.3665771484376	-726.7190551757814	-426.8504943847657	238.6111450195313	-750.0452880859376	-518.9060668945314	97.27528381347659	-729.0885009765626	-494.1536254882814	99.55459594726565	-811.4021606445315	-572.5183105468751	49.69410705566408	-775.0936279296877	-361.4778747558594	60.88548278808595	-777.440856933594	-356.2153930664063	60.26614379882814	-739.6960449218751	-394.9412231445314	40.39712524414063	-688.9111938476564	-360.2678527832032	1017.294250488281	-1041.868896484375	nan	nan	nan	nan	nan	nan	
1251	6.25	-215.6638336181641	1709.891479492188	-923.5290527343752	-353.9788208007813	1710.847778320313	-998.9168090820315	-398.5814819335939	1705.294555664063	-838.9717407226565	-467.1601562500001	1538.673217773438	-930.4517822265627	-521.0526123046876	1230.763427734375	-934.3079833984377	-339.3968811035157	1468.7421875	-925.1236572265627	-361.5911865234376	1518.696655273438	-1104.611572265625	-435.9910888671876	1350.681518554688	-1255.553344726563	-408.4494018554689	1309.50732421875	-1243.438354492188	-448.750946044922	1289.258911132813	-1285.522338867188	-451.385955810547	1229.731811523438	-1297.55615234375	-523.8817749023439	1230.359252929688	-1254.625854492188	-449.8843383789064	990.6995239257815	-1147.548461914063	-406.9160461425782	974.1506958007815	-1199.159790039063	-394.1020507812501	995.2489013671877	-1109.685668945313	-385.2323608398439	1498.374267578125	-732.5138549804689	-456.6399536132814	1324.129638671875	-598.3245239257814	-426.3584289550782	1283.970703125	-607.6068725585939	-464.2470092773439	1260.954711914063	-568.2747802734376	-462.0866699218751	1198.765625	-557.4453735351564	-538.6699829101564	1194.21044921875	-597.2588500976564	-461.6028747558595	962.3875122070315	-710.3995361328126	-419.4965820312501	944.459167480469	-655.2796020507814	-399.2068176269532	974.3238525390627	-748.3138427734376	-361.0189514160157	994.1977539062502	-823.3122558593752	-522.1356811523439	1078.68408203125	-928.686706542969	-528.5517578125001	1046.487915039063	-956.421081542969	-530.5845947265626	1050.9638671875	-899.5510253906252	-447.8444213867189	789.8321533203127	-1136.5654296875	-407.3301391601564	715.7636718750001	-1146.66015625	-359.9679260253907	722.4226074218751	-1140.500732421875	-427.4218139648439	659.9707031250001	-1136.90478515625	-396.5423583984376	505.489471435547	-1139.6162109375	-385.6954956054689	487.4966735839845	-1019.573608398438	-397.3997497558595	323.3604736328126	-1079.228393554688	-431.3607788085939	286.3022155761719	-1152.9599609375	-401.8017578125001	278.7025756835938	-1116.956665039063	-430.8870239257814	202.845932006836	-1092.315673828125	-500.9664001464845	97.16947937011722	-1147.749267578125	-480.9277954101564	98.69361114501956	-1061.671752929688	-561.8540649414064	48.76757049560548	-1101.672729492188	-344.2577514648438	61.2229461669922	-1086.582397460938	-346.7696533203126	61.75728607177736	-1132.321533203125	-382.9082641601563	41.51657867431641	-1179.201538085938	-451.8448181152345	737.1351318359376	-739.7344970703126	-407.1926574707032	687.9884643554689	-727.8576049804689	-373.9222106933594	693.5942993164064	-729.9187011718751	-420.8944396972657	606.1679687500001	-741.9227294921876	-413.7438964843751	496.1815490722657	-740.5401611328126	-410.4337158203126	482.5681152343751	-861.612487792969	-385.7418518066407	362.2535400390626	-758.6553955078126	-468.3291015625001	306.5782165527344	-711.3113403320314	-428.025848388672	291.3724060058594	-726.7344360351564	-426.8309020996095	238.6158752441407	-750.1358032226564	-518.9063720703126	97.30185699462893	-729.1047363281251	-494.1511230468751	99.54146575927737	-811.400085449219	-572.5430908203126	49.69481658935548	-775.086120605469	-361.4990844726563	60.8949661254883	-777.4500732421877	-356.2123718261719	60.27822494506837	-739.6925048828126	-394.942352294922	40.4239730834961	-688.9230346679689	-360.1672363281251	1017.315734863281	-1042.063598632813	nan	nan	nan	nan	nan	nan	
1252	6.255	-216.9866027832032	1710.268798828125	-923.5794067382815	-354.9060974121094	1711.032348632813	-999.2305297851565	-399.5467529296876	1705.1962890625	-839.1933593750002	-467.0230407714845	1537.93408203125	-930.3225097656252	-520.8069458007814	1230.548583984375	-934.537780761719	-339.5204772949219	1468.984375	-925.447692871094	-361.8109130859376	1518.801025390625	-1104.92333984375	-436.3135681152345	1350.628540039063	-1255.8193359375	-408.7348937988282	1309.618041992188	-1243.661376953125	-449.0230407714845	1289.298461914063	-1285.7705078125	-451.5643005371095	1229.720092773438	-1297.751220703125	-524.0777587890626	1230.403930664063	-1254.882080078125	-449.7961730957032	990.7041625976565	-1147.754028320313	-406.9036560058595	974.1823730468752	-1199.310668945313	-394.088836669922	995.260437011719	-1109.881225585938	-385.2740173339845	1498.399047851563	-732.7695312500001	-456.6103515625001	1324.22314453125	-598.5385131835939	-426.2146606445314	1284.017456054688	-607.8659667968751	-464.094696044922	1261.0830078125	-568.4804077148439	-461.8474426269532	1198.65673828125	-557.5750732421876	-538.5966186523439	1194.28515625	-597.2929077148439	-461.4165649414064	962.4353637695315	-710.6079101562501	-419.3064270019532	944.529968261719	-655.4333496093751	-398.9144287109376	974.3067626953127	-748.5250854492189	-360.9190673828126	994.2036743164065	-823.499938964844	-522.0852661132814	1078.661010742188	-928.7821044921877	-528.4320068359376	1046.4541015625	-956.5548095703127	-530.5874023437501	1050.94482421875	-899.7000732421877	-447.736541748047	789.8063964843752	-1136.722290039063	-407.2350463867189	715.7013549804689	-1146.785766601563	-359.9324035644532	722.4890747070314	-1140.577392578125	-427.3057556152345	659.9324340820314	-1137.010498046875	-396.4596557617189	505.4581298828126	-1139.697265625	-385.663055419922	487.542449951172	-1019.688720703125	-397.3859252929689	323.3883666992188	-1079.272216796875	-431.3076477050782	286.3021545410157	-1152.9951171875	-401.813690185547	278.4897460937501	-1116.951416015625	-430.9031372070314	202.8698883056641	-1092.298583984375	-500.925750732422	97.17373657226565	-1147.79931640625	-480.9359436035157	98.703483581543	-1061.6845703125	-561.9227905273439	48.78165817260744	-1101.660766601563	-344.2291564941407	61.23213958740236	-1086.554809570313	-346.7470397949219	61.81275939941408	-1132.30029296875	-383.4332580566407	40.81744003295899	-1178.916015625	-451.6612243652345	737.2573242187501	-739.9219970703126	-407.1277770996095	687.9961547851564	-727.9675903320314	-373.7981567382813	693.5342407226564	-730.1234130859376	-420.8692321777345	606.2060546875001	-742.0686035156251	-413.806121826172	496.3385009765626	-740.6794433593751	-410.4402770996095	482.5480957031251	-861.7694091796877	-385.7860412597657	362.2390441894532	-758.8179931640626	-468.3309326171876	306.6120910644532	-711.3732299804689	-428.0651245117189	291.3916015625001	-726.7738647460939	-426.8524780273439	238.644760131836	-750.2279663085939	-518.9061889648439	97.34322357177737	-729.1159057617189	-494.1581420898439	99.54695892333987	-811.4427490234377	-572.4945068359376	49.70378875732423	-775.1114501953127	-361.5368652343751	61.06221771240236	-777.4431152343752	-356.1760559082032	60.26434326171876	-739.6969604492189	-395.1050720214845	40.11629867553712	-689.0653686523439	-359.9865722656251	1017.404602050781	-1042.373413085938	nan	nan	nan	nan	nan	nan	
